# xmcd CD database file
#
# Track frame offsets:
#	150
#	13897
#	23973
#	33736
#	49544
#	61456
#	73052
#	86289
#	105541
#	116754
#	130913
#	144863
#	154559
#	166277
#	178582
#	191769
#	202536
#	216269
#	234246
#	243029
#
# Disc length: 3379 seconds
#
# Revision: 5
# Processed by: cddbd v1.5.2PL0 Copyright (c) Steve Scherf et al.
# Submitted via: CDex 1.50beta10
#
DISCID=080d3114
DTITLE=Various Artist - Country Greats - Disc 8
DYEAR=1900
DGENRE=Country
TTITLE0=Tennessee Waltz - Patti Page
TTITLE1=Engine, Engine No.9  - Roger Miller
TTITLE2=Mama Tried - Merle Haggard
TTITLE3=Games People Play - Joe South
TTITLE4=Queen Of The House - Jody Miller
TTITLE5=Try A Little Kindness - Billy Jo Spears
TTITLE6=Daddy And Home - Jimmie Rodgers
TTITLE7=Who's That Man - Don Fardon
TTITLE8=Country Green - Don Gibson
TTITLE9=Don't Fence Me In - Frankie Laine
TTITLE10=Lady Of The Wind - Lee Conway
TTITLE11=Ashamed - Willie Nelson
TTITLE12=Supertrucker - Nev Nichols
TTITLE13=A Poor Man's Roses - Patsy Cline
TTITLE14=You Win Again - Jerry Lee Lewis
TTITLE15=Charlie's Shoes - Billy Walker
TTITLE16=Cross The Brazos At Waco - Billy Walker
TTITLE17=Garden Party - Rick Nelson
TTITLE18=Let's Think About Living-/ Bob Luman
TTITLE19=Let Me Be The Judge - Conway Twitty
EXTD=
EXTT0=
EXTT1=
EXTT2=
EXTT3=
EXTT4=
EXTT5=
EXTT6=
EXTT7=
EXTT8=
EXTT9=
EXTT10=
EXTT11=
EXTT12=
EXTT13=
EXTT14=
EXTT15=
EXTT16=
EXTT17=
EXTT18=
EXTT19=
PLAYORDER=
